Coordinates
version=1
nRows=54
nColumns=12
inDegrees=yes

Units are S.I. units (second, meters, Newtons, ...)
Angles are in degrees

endheader
time	SC_y	SC_z	SC_x	AC_y	AC_z	AC_x	GH_y	GH_z	GH_yy	EL_x	PS_y
       0.0              -21.86          20.21          54.93          34.67         -7.812          11.15          104.5           43.1         -153.9          125.3          112.0
   0.01931              -21.87          20.21          54.92          34.68          -7.81          11.15          104.5           43.1         -153.9          125.3          111.9
   0.03862              -21.87          20.21          54.92          34.68         -7.808          11.14          104.5           43.1         -153.9          125.2          111.9
   0.05792              -21.88          20.21          54.92          34.69         -7.805          11.14          104.4          43.11         -153.9          125.2          111.9
   0.07723              -21.89          20.21          54.91          34.69         -7.803          11.13          104.4          43.11         -153.9          125.2          111.9
   0.09654              -21.89          20.22          54.91           34.7           -7.8          11.13          104.4          43.11         -153.9          125.2          111.9
    0.1158               -21.9          20.22          54.91           34.7         -7.797          11.12          104.4          43.12         -153.9          125.2          111.9
    0.1352              -21.91          20.22           54.9          34.71         -7.794          11.12          104.3          43.12         -153.8          125.2          111.8
    0.1545              -21.92          20.22           54.9          34.72          -7.79          11.11          104.3          43.13         -153.8          125.2          111.8
    0.1738              -21.93          20.23          54.89          34.73         -7.786           11.1          104.3          43.13         -153.8          125.2          111.8
    0.1931              -21.94          20.23          54.89          34.74         -7.782          11.09          104.2          43.14         -153.8          125.2          111.8
    0.2124              -21.95          20.23          54.88          34.75         -7.778          11.09          104.2          43.15         -153.8          125.2          111.8
    0.2317              -21.96          20.24          54.87          34.76         -7.774          11.08          104.2          43.15         -153.7          125.2          111.7
     0.251              -21.97          20.24          54.87          34.77         -7.769          11.07          104.1          43.16         -153.7          125.2          111.7
    0.2703              -21.98          20.25          54.86          34.78         -7.763          11.06          104.1          43.17         -153.7          125.2          111.7
    0.2896               -22.0          20.25          54.85          34.79         -7.757          11.05          104.0          43.18         -153.7          125.2          111.6
    0.3089              -22.02          20.26          54.84          34.81         -7.751          11.03          104.0          43.19         -153.6          125.1          111.6
    0.3282              -22.03          20.26          54.83          34.82         -7.744          11.02          103.9           43.2         -153.6          125.1          111.6
    0.3475              -22.05          20.27          54.82          34.84         -7.736          11.01          103.8          43.21         -153.6          125.1          111.5
    0.3668              -22.07          20.27          54.81          34.86         -7.728          10.99          103.8          43.22         -153.5          125.1          111.5
    0.3862               -22.1          20.28           54.8          34.88         -7.719          10.97          103.7          43.23         -153.5          125.1          111.4
    0.4055              -22.12          20.29          54.78           34.9         -7.709          10.95          103.6          43.25         -153.4          125.1          111.3
    0.4248              -22.15           20.3          54.77          34.92         -7.698          10.93          103.5          43.26         -153.4          125.1          111.3
    0.4441              -22.18          20.31          54.75          34.95         -7.685          10.91          103.4          43.28         -153.3          125.0          111.2
    0.4634              -22.21          20.32          54.73          34.98         -7.672          10.88          103.3           43.3         -153.2          125.0          111.1
    0.4827              -22.25          20.33          54.71          35.01         -7.657          10.85          103.2          43.32         -153.2          125.0          111.0
     0.502              -22.29          20.34          54.69          35.05         -7.639          10.82          103.0          43.35         -153.1          125.0          110.9
    0.5213              -22.34          20.36          54.66           35.1          -7.62          10.78          102.8          43.37         -153.0          124.9          110.8
    0.5406               -22.4          20.37          54.63          35.14         -7.599          10.74          102.6          43.41         -152.9          124.9          110.7
    0.5599              -22.46          20.39           54.6           35.2         -7.574          10.69          102.4          43.44         -152.8          124.8          110.6
    0.5792              -22.53          20.42          54.56          35.26         -7.546          10.64          102.2          43.48         -152.6          124.8          110.4
    0.5985              -22.61          20.44          54.51          35.33         -7.513          10.58          101.9          43.53         -152.5          124.7          110.2
    0.6179               -22.7          20.47          54.46          35.41         -7.476          10.51          101.6          43.58         -152.3          124.7          110.0
    0.6372              -22.81           20.5           54.4          35.51         -7.433          10.42          101.2          43.65         -152.1          124.6          109.7
    0.6565              -22.94          20.54          54.33          35.62         -7.382          10.32          100.8          43.72         -151.8          124.5          109.4
    0.6758              -23.09          20.59          54.24          35.75         -7.322          10.21          100.3           43.8         -151.6          124.4          109.1
    0.6951              -23.26          20.65          54.15          35.91         -7.251          10.07          99.65          43.91         -151.2          124.3          108.7
    0.7144              -23.48          20.71          54.03           36.1         -7.166           9.91          98.91          44.03         -150.8          124.2          108.2
    0.7337              -23.73          20.79          53.88          36.33         -7.063          9.711          98.02          44.18         -150.3          124.0          107.6
     0.753              -24.05          20.89          53.71           36.6         -6.938           9.47          96.94          44.36         -149.7          123.8          106.8
    0.7723              -24.44          21.01          53.49          36.95         -6.782          9.171           95.6          44.59         -148.9          123.5          105.9
    0.7916              -24.92          21.16          53.22          37.38         -6.589          8.799          93.92          44.87         -148.0          123.2          104.8
    0.8109              -25.53          21.35          52.88          37.91         -6.345           8.33          91.82          45.22         -146.8          122.8          103.4
    0.8302               -26.3           21.6          52.45           38.6         -6.035          7.733          89.14          45.67         -145.3          122.2          101.6
    0.8495               -27.3          21.91           51.9          39.48         -5.638           6.97          85.71          46.24         -143.4          121.5          99.23
    0.8689              -28.57           22.3          51.19           40.6         -5.129          5.991          81.31          46.98         -140.9          120.7          96.25
    0.8882              -30.19          22.81          50.28          42.04         -4.478          4.739          75.69          47.92         -137.8          119.6          92.45
    0.9075              -32.24          23.45          49.14          43.85          -3.66          3.166          68.62           49.1         -133.8          118.2          87.66
    0.9268              -34.73          24.23          47.76          46.05         -2.663          1.249          60.01          50.54         -128.9          116.5          81.83
    0.9461              -37.61          25.13          46.15          48.61         -1.508        -0.9728          50.02          52.21         -123.3          114.5          75.07
    0.9654              -40.74          26.11          44.41          51.37         -0.257         -3.379          39.21          54.02         -117.3          112.4          67.76
    0.9847              -43.87          27.09          42.66          54.14          0.994         -5.785           28.4          55.83         -111.2          110.2          60.44
     1.004              -46.75          27.99          41.05          56.69          2.149         -8.007          18.42           57.5         -105.6          108.3          53.68
     1.023              -49.24          28.77          39.67          58.89          3.146         -9.924          9.807          58.94         -100.8          106.6          47.85
